<svg width="311" height="83" viewBox="0 0 311 83" fill="none" xmlns="http://www.w3.org/2000/svg">
<path d="M185.036 4.94975L218.05 37.9645C220.003 39.9171 220.003 43.0829 218.05 45.0355L185.036 78.0502C183.083 80.0029 179.917 80.0029 177.964 78.0503L144.95 45.0355C142.997 43.0829 142.997 39.9171 144.95 37.9645L177.964 4.94975C179.917 2.99713 183.083 2.99713 185.036 4.94975Z" stroke="#26C1F2" stroke-width="2"/>
<path d="M6.27 37.81C6.81 37.01 7.55 36.36 8.49 35.86C9.45 35.36 10.54 35.11 11.76 35.11C13.18 35.11 14.46 35.46 15.6 36.16C16.76 36.86 17.67 37.86 18.33 39.16C19.01 40.44 19.35 41.93 19.35 43.63C19.35 45.33 19.01 46.84 18.33 48.16C17.67 49.46 16.76 50.47 15.6 51.19C14.46 51.91 13.18 52.27 11.76 52.27C10.52 52.27 9.43 52.03 8.49 51.55C7.57 51.05 6.83 50.41 6.27 49.63V52H2.07V29.8H6.27V37.81ZM15.06 43.63C15.06 42.63 14.85 41.77 14.43 41.05C14.03 40.31 13.49 39.75 12.81 39.37C12.15 38.99 11.43 38.8 10.65 38.8C9.89 38.8 9.17 39 8.49 39.4C7.83 39.78 7.29 40.34 6.87 41.08C6.47 41.82 6.27 42.69 6.27 43.69C6.27 44.69 6.47 45.56 6.87 46.3C7.29 47.04 7.83 47.61 8.49 48.01C9.17 48.39 9.89 48.58 10.65 48.58C11.43 48.58 12.15 48.38 12.81 47.98C13.49 47.58 14.03 47.01 14.43 46.27C14.85 45.53 15.06 44.65 15.06 43.63ZM37.852 43.33C37.852 43.93 37.812 44.47 37.732 44.95H25.582C25.682 46.15 26.102 47.09 26.842 47.77C27.582 48.45 28.492 48.79 29.572 48.79C31.132 48.79 32.242 48.12 32.902 46.78H37.432C36.952 48.38 36.032 49.7 34.672 50.74C33.312 51.76 31.642 52.27 29.662 52.27C28.062 52.27 26.622 51.92 25.342 51.22C24.082 50.5 23.092 49.49 22.372 48.19C21.672 46.89 21.322 45.39 21.322 43.69C21.322 41.97 21.672 40.46 22.372 39.16C23.072 37.86 24.052 36.86 25.312 36.16C26.572 35.46 28.022 35.11 29.662 35.11C31.242 35.11 32.652 35.45 33.892 36.13C35.152 36.81 36.122 37.78 36.802 39.04C37.502 40.28 37.852 41.71 37.852 43.33ZM33.502 42.13C33.482 41.05 33.092 40.19 32.332 39.55C31.572 38.89 30.642 38.56 29.542 38.56C28.502 38.56 27.622 38.88 26.902 39.52C26.202 40.14 25.772 41.01 25.612 42.13H33.502ZM45.1177 29.8V52H40.9177V29.8H45.1177ZM48.1873 43.63C48.1873 41.95 48.5173 40.46 49.1773 39.16C49.8573 37.86 50.7673 36.86 51.9073 36.16C53.0673 35.46 54.3573 35.11 55.7773 35.11C57.0173 35.11 58.0973 35.36 59.0173 35.86C59.9573 36.36 60.7073 36.99 61.2673 37.75V35.38H65.4973V52H61.2673V49.57C60.7273 50.35 59.9773 51 59.0173 51.52C58.0773 52.02 56.9873 52.27 55.7473 52.27C54.3473 52.27 53.0673 51.91 51.9073 51.19C50.7673 50.47 49.8573 49.46 49.1773 48.16C48.5173 46.84 48.1873 45.33 48.1873 43.63ZM61.2673 43.69C61.2673 42.67 61.0673 41.8 60.6673 41.08C60.2673 40.34 59.7273 39.78 59.0473 39.4C58.3673 39 57.6373 38.8 56.8573 38.8C56.0773 38.8 55.3573 38.99 54.6973 39.37C54.0373 39.75 53.4973 40.31 53.0773 41.05C52.6773 41.77 52.4773 42.63 52.4773 43.63C52.4773 44.63 52.6773 45.51 53.0773 46.27C53.4973 47.01 54.0373 47.58 54.6973 47.98C55.3773 48.38 56.0973 48.58 56.8573 48.58C57.6373 48.58 58.3673 48.39 59.0473 48.01C59.7273 47.61 60.2673 47.05 60.6673 46.33C61.0673 45.59 61.2673 44.71 61.2673 43.69ZM71.7293 33.4C70.9693 33.4 70.3393 33.17 69.8393 32.71C69.3593 32.23 69.1193 31.64 69.1193 30.94C69.1193 30.24 69.3593 29.66 69.8393 29.2C70.3393 28.72 70.9693 28.48 71.7293 28.48C72.4693 28.48 73.0793 28.72 73.5593 29.2C74.0393 29.66 74.2793 30.24 74.2793 30.94C74.2793 31.64 74.0393 32.23 73.5593 32.71C73.0793 33.17 72.4693 33.4 71.7293 33.4ZM73.7993 54.73C73.7993 56.57 73.3393 57.89 72.4193 58.69C71.5193 59.51 70.2193 59.92 68.5193 59.92H66.6593V56.35H67.8593C68.4993 56.35 68.9493 56.22 69.2093 55.96C69.4693 55.72 69.5993 55.32 69.5993 54.76V35.38H73.7993V54.73ZM76.8689 43.63C76.8689 41.95 77.1989 40.46 77.8589 39.16C78.5389 37.86 79.4489 36.86 80.5889 36.16C81.7489 35.46 83.0389 35.11 84.4589 35.11C85.6989 35.11 86.7789 35.36 87.6989 35.86C88.6389 36.36 89.3889 36.99 89.9489 37.75V35.38H94.1789V52H89.9489V49.57C89.4089 50.35 88.6589 51 87.6989 51.52C86.7589 52.02 85.6689 52.27 84.4289 52.27C83.0289 52.27 81.7489 51.91 80.5889 51.19C79.4489 50.47 78.5389 49.46 77.8589 48.16C77.1989 46.84 76.8689 45.33 76.8689 43.63ZM89.9489 43.69C89.9489 42.67 89.7489 41.8 89.3489 41.08C88.9489 40.34 88.4089 39.78 87.7289 39.4C87.0489 39 86.3189 38.8 85.5389 38.8C84.7589 38.8 84.0389 38.99 83.3789 39.37C82.7189 39.75 82.1789 40.31 81.7589 41.05C81.3589 41.77 81.1589 42.63 81.1589 43.63C81.1589 44.63 81.3589 45.51 81.7589 46.27C82.1789 47.01 82.7189 47.58 83.3789 47.98C84.0589 48.38 84.7789 48.58 85.5389 48.58C86.3189 48.58 87.0489 48.39 87.7289 48.01C88.4089 47.61 88.9489 47.05 89.3489 46.33C89.7489 45.59 89.9489 44.71 89.9489 43.69ZM102.481 37.96C103.021 37.08 103.721 36.39 104.581 35.89C105.461 35.39 106.461 35.14 107.581 35.14V39.55H106.471C105.151 39.55 104.151 39.86 103.471 40.48C102.811 41.1 102.481 42.18 102.481 43.72V52H98.2809V35.38H102.481V37.96ZM109.33 43.63C109.33 41.95 109.66 40.46 110.32 39.16C111 37.86 111.92 36.86 113.08 36.16C114.24 35.46 115.53 35.11 116.95 35.11C118.03 35.11 119.06 35.35 120.04 35.83C121.02 36.29 121.8 36.91 122.38 37.69V29.8H126.64V52H122.38V49.54C121.86 50.36 121.13 51.02 120.19 51.52C119.25 52.02 118.16 52.27 116.92 52.27C115.52 52.27 114.24 51.91 113.08 51.19C111.92 50.47 111 49.46 110.32 48.16C109.66 46.84 109.33 45.33 109.33 43.63ZM122.41 43.69C122.41 42.67 122.21 41.8 121.81 41.08C121.41 40.34 120.87 39.78 120.19 39.4C119.51 39 118.78 38.8 118 38.8C117.22 38.8 116.5 38.99 115.84 39.37C115.18 39.75 114.64 40.31 114.22 41.05C113.82 41.77 113.62 42.63 113.62 43.63C113.62 44.63 113.82 45.51 114.22 46.27C114.64 47.01 115.18 47.58 115.84 47.98C116.52 48.38 117.24 48.58 118 48.58C118.78 48.58 119.51 48.39 120.19 48.01C120.87 47.61 121.41 47.05 121.81 46.33C122.21 45.59 122.41 44.71 122.41 43.69ZM132.872 33.4C132.132 33.4 131.512 33.17 131.012 32.71C130.532 32.23 130.292 31.64 130.292 30.94C130.292 30.24 130.532 29.66 131.012 29.2C131.512 28.72 132.132 28.48 132.872 28.48C133.612 28.48 134.222 28.72 134.702 29.2C135.202 29.66 135.452 30.24 135.452 30.94C135.452 31.64 135.202 32.23 134.702 32.71C134.222 33.17 133.612 33.4 132.872 33.4ZM134.942 35.38V52H130.742V35.38H134.942ZM148.451 35.14C149.711 35.14 150.831 35.42 151.811 35.98C152.791 36.52 153.551 37.33 154.091 38.41C154.651 39.47 154.931 40.75 154.931 42.25V52H150.731V42.82C150.731 41.5 150.401 40.49 149.741 39.79C149.081 39.07 148.181 38.71 147.041 38.71C145.881 38.71 144.961 39.07 144.281 39.79C143.621 40.49 143.291 41.5 143.291 42.82V52H139.091V29.8H143.291V37.45C143.831 36.73 144.551 36.17 145.451 35.77C146.351 35.35 147.351 35.14 148.451 35.14ZM157.845 43.63C157.845 41.95 158.175 40.46 158.835 39.16C159.515 37.86 160.425 36.86 161.565 36.16C162.725 35.46 164.015 35.11 165.435 35.11C166.675 35.11 167.755 35.36 168.675 35.86C169.615 36.36 170.365 36.99 170.925 37.75V35.38H175.155V52H170.925V49.57C170.385 50.35 169.635 51 168.675 51.52C167.735 52.02 166.645 52.27 165.405 52.27C164.005 52.27 162.725 51.91 161.565 51.19C160.425 50.47 159.515 49.46 158.835 48.16C158.175 46.84 157.845 45.33 157.845 43.63ZM170.925 43.69C170.925 42.67 170.725 41.8 170.325 41.08C169.925 40.34 169.385 39.78 168.705 39.4C168.025 39 167.295 38.8 166.515 38.8C165.735 38.8 165.015 38.99 164.355 39.37C163.695 39.75 163.155 40.31 162.735 41.05C162.335 41.77 162.135 42.63 162.135 43.63C162.135 44.63 162.335 45.51 162.735 46.27C163.155 47.01 163.695 47.58 164.355 47.98C165.035 48.38 165.755 48.58 166.515 48.58C167.295 48.58 168.025 48.39 168.705 48.01C169.385 47.61 169.925 47.05 170.325 46.33C170.725 45.59 170.925 44.71 170.925 43.69ZM184.148 38.83V46.87C184.148 47.43 184.278 47.84 184.538 48.1C184.818 48.34 185.278 48.46 185.918 48.46H187.868V52H185.228C181.688 52 179.918 50.28 179.918 46.84V38.83H177.938V35.38H179.918V31.27H184.148V35.38H187.868V38.83H184.148ZM193.018 33.4C192.278 33.4 191.658 33.17 191.158 32.71C190.678 32.23 190.438 31.64 190.438 30.94C190.438 30.24 190.678 29.66 191.158 29.2C191.658 28.72 192.278 28.48 193.018 28.48C193.758 28.48 194.368 28.72 194.848 29.2C195.348 29.66 195.598 30.24 195.598 30.94C195.598 31.64 195.348 32.23 194.848 32.71C194.368 33.17 193.758 33.4 193.018 33.4ZM195.088 35.38V52H190.888V35.38H195.088ZM209.078 52L203.438 44.92V52H199.238V29.8H203.438V42.43L209.018 35.38H214.478L207.158 43.72L214.538 52H209.078ZM232.448 35.38V52H228.218V49.9C227.678 50.62 226.968 51.19 226.088 51.61C225.228 52.01 224.288 52.21 223.268 52.21C221.968 52.21 220.818 51.94 219.818 51.4C218.818 50.84 218.028 50.03 217.448 48.97C216.888 47.89 216.608 46.61 216.608 45.13V35.38H220.808V44.53C220.808 45.85 221.138 46.87 221.798 47.59C222.458 48.29 223.358 48.64 224.498 48.64C225.658 48.64 226.568 48.29 227.228 47.59C227.888 46.87 228.218 45.85 228.218 44.53V35.38H232.448Z" fill="black"/>
<path d="M238.451 52.21C237.691 52.21 237.061 51.98 236.561 51.52C236.081 51.04 235.841 50.45 235.841 49.75C235.841 49.05 236.081 48.47 236.561 48.01C237.061 47.53 237.691 47.29 238.451 47.29C239.191 47.29 239.801 47.53 240.281 48.01C240.761 48.47 241.001 49.05 241.001 49.75C241.001 50.45 240.761 51.04 240.281 51.52C239.801 51.98 239.191 52.21 238.451 52.21ZM243.304 43.69C243.304 41.97 243.654 40.47 244.354 39.19C245.054 37.89 246.024 36.89 247.264 36.19C248.504 35.47 249.924 35.11 251.524 35.11C253.584 35.11 255.284 35.63 256.624 36.67C257.984 37.69 258.894 39.13 259.354 40.99H254.824C254.584 40.27 254.174 39.71 253.594 39.31C253.034 38.89 252.334 38.68 251.494 38.68C250.294 38.68 249.344 39.12 248.644 40C247.944 40.86 247.594 42.09 247.594 43.69C247.594 45.27 247.944 46.5 248.644 47.38C249.344 48.24 250.294 48.67 251.494 48.67C253.194 48.67 254.304 47.91 254.824 46.39H259.354C258.894 48.19 257.984 49.62 256.624 50.68C255.264 51.74 253.564 52.27 251.524 52.27C249.924 52.27 248.504 51.92 247.264 51.22C246.024 50.5 245.054 49.5 244.354 48.22C243.654 46.92 243.304 45.41 243.304 43.69ZM269.811 52.27C268.211 52.27 266.771 51.92 265.491 51.22C264.211 50.5 263.201 49.49 262.461 48.19C261.741 46.89 261.381 45.39 261.381 43.69C261.381 41.99 261.751 40.49 262.491 39.19C263.251 37.89 264.281 36.89 265.581 36.19C266.881 35.47 268.331 35.11 269.931 35.11C271.531 35.11 272.981 35.47 274.281 36.19C275.581 36.89 276.601 37.89 277.341 39.19C278.101 40.49 278.481 41.99 278.481 43.69C278.481 45.39 278.091 46.89 277.311 48.19C276.551 49.49 275.511 50.5 274.191 51.22C272.891 51.92 271.431 52.27 269.811 52.27ZM269.811 48.61C270.571 48.61 271.281 48.43 271.941 48.07C272.621 47.69 273.161 47.13 273.561 46.39C273.961 45.65 274.161 44.75 274.161 43.69C274.161 42.11 273.741 40.9 272.901 40.06C272.081 39.2 271.071 38.77 269.871 38.77C268.671 38.77 267.661 39.2 266.841 40.06C266.041 40.9 265.641 42.11 265.641 43.69C265.641 45.27 266.031 46.49 266.811 47.35C267.611 48.19 268.611 48.61 269.811 48.61ZM302.202 35.14C304.242 35.14 305.882 35.77 307.122 37.03C308.382 38.27 309.012 40.01 309.012 42.25V52H304.812V42.82C304.812 41.52 304.482 40.53 303.822 39.85C303.162 39.15 302.262 38.8 301.122 38.8C299.982 38.8 299.072 39.15 298.392 39.85C297.732 40.53 297.402 41.52 297.402 42.82V52H293.202V42.82C293.202 41.52 292.872 40.53 292.212 39.85C291.552 39.15 290.652 38.8 289.512 38.8C288.352 38.8 287.432 39.15 286.752 39.85C286.092 40.53 285.762 41.52 285.762 42.82V52H281.562V35.38H285.762V37.39C286.302 36.69 286.992 36.14 287.832 35.74C288.692 35.34 289.632 35.14 290.652 35.14C291.952 35.14 293.112 35.42 294.132 35.98C295.152 36.52 295.942 37.3 296.502 38.32C297.042 37.36 297.822 36.59 298.842 36.01C299.882 35.43 301.002 35.14 302.202 35.14Z" fill="#ECF9FD"/>
</svg>
